<?xml version="1.0" standalone="yes"?>
<!DOCTYPE svg PUBLIC "-//W3C//DTD SVG 20010904//EN" "http://www.w3.org/TR/2001/REC-SVG-20010904/DTD/svg10.dtd">
<svg xmlns="http://www.w3.org/2000/svg" version="1.0" width="50pt" height="50pt" viewBox="0 0 1280.000000 1280.000000" preserveAspectRatio="xMidYMid meet" style="zoom: 1;"><metadata>Created by potrace 1.15, written by Peter Selinger 2001-2017</metadata><g transform="translate(0.000000,1106.000000) scale(0.100000,-0.100000)" fill="#000000" stroke="none"><path d="M1980,10888 c-23,-95 -75,-310 -116,-478 c-41,-168 -88,-359 -104,-425 c-16,-66 -65,-266 -109,-445 c-43,-179 -102,-420 -131,-537 c-51,-209 -52,-212 -88,-240 c-159,-120 -499,-443 -656,-623 c-532,-605 -795,-1233 -772,-1840 c15,-400 131,-751 365,-1101 c595,-890 1817,-1491 3236,-1590 c211,-14 774,-6 965,15 c74,8 136,13 138,12 c4,-5 -36,-484 -68,-816 c-110,-1100 -249,-1850 -402,-2153 c-24,-49 -60,-99 -93,-133 c-71,-71 -74,-104 -14,-169 c179,-194 1097,-384 1754,-361 c330,11 549,54 735,145 c130,63 293,225 362,358 l33,63 l55,0 c82,0 296,27 400,50 c508,113 1116,476 1591,950 c411,410 613,828 696,1435 c19,141 22,451 13,1190 c-4,318 -2,384 13,472 c45,269 130,429 312,586 c177,153 340,262 476,316 c300,120 588,27 1034,-332 c483,-389 686,-666 685,-933 c-1,-156 -53,-268 -189,-405 c-158,-159 -412,-308 -751,-438 c-262,-101 -332,-133 -371,-171 c-45,-43 -49,-71 -14,-98 c45,-35 119,-47 300,-46 c341,2 769,93 1035,222 c253,122 416,342 482,647 c19,92 16,342 -6,445 c-107,495 -463,938 -1046,1304 c-136,86 -380,206 -498,246 c-381,128 -698,118 -1007,-34 c-356,-175 -662,-552 -864,-1064 c-71,-180 -79,-254 -63,-585 c24,-496 13,-842 -37,-1132 c-77,-447 -252,-896 -468,-1198 c-75,-104 -260,-297 -377,-391 c-314,-254 -708,-440 -1218,-576 c-111,-29 -108,-30 -108,36 c0,31 -11,111 -25,178 c-54,271 -187,587 -401,953 c-116,199 -123,211 -475,743 c-169,256 -330,506 -358,555 l-52,90 l58,7 c32,3 135,11 228,18 c949,61 1844,368 2490,854 c193,144 430,373 568,546 c362,454 557,986 557,1521 c0,589 -212,1152 -634,1679 c-96,119 -351,384 -464,483 l-53,46 l-222,1140 c-123,627 -225,1142 -228,1145 c-3,3 -193,-338 -423,-757 c-231,-419 -420,-763 -421,-765 c-2,-2 -67,17 -145,42 c-269,87 -586,155 -880,190 c-216,26 -433,36 -785,36 c-563,0 -1099,-39 -2214,-160 c-207,-23 -295,-29 -300,-21 c-3,6 -197,339 -431,740 c-287,494 -430,730 -442,731 c-13,0 -25,-35 -58,-172 z"></path></g><svg xmlns="http://www.w3.org/2000/svg" xmlns:xlink="http://www.w3.org/1999/xlink" version="1.1" id="_x32_" x="0px" y="0px" viewBox="0 0 512 512" style="width: 64px; height: 64px; opacity: 1;" xml:space="preserve"><style type="text/css">
        .st0{fill:#4B4B4B;}
</style></svg><svg xmlns="http://www.w3.org/2000/svg" xmlns:xlink="http://www.w3.org/1999/xlink" version="1.1" id="_x32_" x="0px" y="0px" viewBox="0 0 512 512" style="width: 64px; height: 64px; opacity: 1;" xml:space="preserve"><style type="text/css">
        .st0{fill:#4B4B4B;}
</style><g><path d="M497.260071,448.835114 C480.041046,452.11145 461.367981,450.52951 443.260498,446.762177 C425.079254,442.937134 407.168671,436.848175 389.888489,429.395538 C355.373993,414.36438 322.701721,394.03479 295.293945,368.986176 C288.054504,362.290314 281.237366,355.165009 275.124084,347.705261 C286.341156,354.162109 297.877228,359.295288 309.727112,363.884949 C329.509644,371.219299 350.291107,375.627838 371.244568,377.075653 C413.034332,379.872253 456.014038,371.279999 492.217712,348.847565 C510.201599,337.630951 526.374573,322.609558 537.584412,303.836365 C548.843872,285.157867 554.169312,262.670105 552.320496,241.031845 L532.873352,242.334045 C533.847839,260.19339 529.123291,277.837555 519.56311,292.815063 C510.046265,307.828522 496.173004,320.168793 480.401917,329.39624 C448.685394,347.932434 410.154266,354.702271 373.373077,351.135254 C368.20282,350.645386 363.065979,349.882446 357.969299,348.979889 C361.749634,347.973114 365.525482,347.001984 369.219177,345.657196 C390.540955,337.839172 408.690857,320.742737 417.888458,300.369904 C427.30719,280.021088 429.279907,257.628357 426.285919,236.69812 C423.288879,215.67099 415.423737,195.762299 404.153473,178.294189 C381.573608,143.074417 345.308838,118.835335 306.7565,107.196762 L300.78598,125.749596 C335.518951,137.32399 366.456573,159.776321 384.883148,190.375977 C394.079315,205.554626 400.14975,222.561478 402.105591,239.794693 C404.093384,256.992737 401.738647,274.517242 394.447784,289.072388 C388.161621,301.706329 377.895416,311.287903 365.459747,317.058655 C366.176483,314.039734 366.611572,311.014069 366.673401,308.195251 C366.794434,300.974152 365.556335,294.499207 363.77359,288.634796 C360.203278,277.486328 355.981659,267.817352 350.876678,257.979034 C340.722382,238.570587 327.621918,220.970551 312.570282,205.509155 C282.406738,174.594208 244.623734,151.909622 203.724472,139.330643 C162.928162,126.7817 118.180328,124.700531 76.792908,137.247894 L82.197105,155.956497 C119.573151,145.705658 159.968964,148.586594 196.791977,160.997253 C233.662491,173.406052 267.538452,195.088959 293.703369,223.423676 C299.021057,229.192322 303.927307,235.304993 308.547241,241.601868 C291.927124,233.645615 275.209473,227.580048 257.561584,222.921173 C221.019379,213.329529 180.563919,211.86673 143.721786,225.524658 C106.892921,238.77771 76.209297,267.966583 61.207436,303.654938 L78.992485,311.606293 C93.025948,281.037476 119.755196,257.29245 151.319839,246.977081 C182.908249,236.336227 218.010376,238.358856 250.679291,248.008194 C257.891571,250.11821 265.12854,252.657501 272.236877,255.444824 C265.091187,255.274582 257.936279,255.521332 250.906921,256.604462 C232.429871,259.565521 214.368576,265.939606 198.657288,277.830109 C182.994308,289.538147 171.513977,307.431763 167.385345,326.397461 C163.087982,345.379395 165.115204,364.746765 170.771469,382.183899 C182.300766,417.252014 207.587341,445.742737 238.220459,463.765808 L248.351761,447.116852 C221.906586,430.475494 200.974838,404.636078 192.5224,375.493683 C188.314667,361.044128 187.476257,345.798981 191.093948,332.137451 C194.61879,318.470795 202.755905,306.751068 214.188217,298.708099 C217.339233,296.442169 220.781937,294.500519 224.392014,292.753937 C223.475937,298.7034 223.847046,304.282806 224.649765,309.360596 C226.931503,321.508575 231.563583,331.622833 237.05304,341.085999 C248.189713,359.7836 262.605774,374.897675 277.937195,388.362335 C308.848816,415.020416 343.896576,435.346252 381.172241,450.410767 C399.84259,457.844727 419.177338,463.842316 439.237366,467.48172 C459.25708,471.021332 480.218658,472.473175 501.305389,467.897308 L497.260071,448.835114 z" style="fill: rgb(5, 130, 243);" class="st0"></path><path d="M176.487885,100.502579 C183.735733,103.140579 191.759689,99.406746 194.401108,92.149506 C197.036377,84.909172 193.293747,76.883087 186.044952,74.244743 C178.805573,71.609818 170.777603,75.351761 168.142334,82.592094 C165.501862,89.849693 169.248505,97.867653 176.487885,100.502579 z" style="fill: rgb(5, 130, 243);" class="st0"></path><path d="M-52293.152344,-36695.023438 C-52287.898438,-36693.113281 -52282.097656,-36695.824219 -52280.191406,-36701.0625 C-52278.28125,-36706.316406 -52280.980469,-36712.125 -52286.234375,-36714.035156 C-52291.488281,-36715.945312 -52297.289062,-36713.234375 -52299.199219,-36707.980469 C-52301.105469,-36702.742188 -52298.40625,-36696.9375 -52293.152344,-36695.023438 z" style="fill: rgb(5, 130, 243);" class="st0"></path><path d="M473.726044,245.603683 C478.971405,247.512833 484.777405,244.811707 486.689301,239.558823 C488.59845,234.313461 485.888824,228.504395 480.644409,226.595581 C475.382141,224.680267 469.580597,227.392593 467.671783,232.637024 C465.760498,237.891174 468.463745,243.68837 473.726044,245.603683 z" style="fill: rgb(5, 130, 243);" class="st0"></path><path d="M488.396027,390.59726 C486.940369,394.596619 489.007141,399.028748 493.00647,400.484406 C497.005798,401.940033 501.428558,399.869873 502.884216,395.870544 C504.339508,391.872131 502.279083,387.451843 498.279724,385.996216 C494.280396,384.540619 489.851318,386.598907 488.396027,390.59726 z" style="fill: rgb(5, 130, 243);" class="st0"></path><path d="M332.659851,465.350555 C327.415436,463.441742 321.595703,466.148499 319.684143,471.400421 C317.774994,476.645813 320.49234,482.459839 325.737701,484.368988 C330.991516,486.28125 336.794373,483.568298 338.703522,478.322906 C340.615387,473.070068 337.913666,467.262787 332.659851,465.350555 z" style="fill: rgb(5, 130, 243);" class="st0"></path><path d="M133.776505,323.049652 C127.782204,320.86792 121.136093,323.959259 118.951271,329.962006 C116.769524,335.956299 119.873337,342.597351 125.86763,344.779114 C131.870392,346.963928 138.507416,343.868256 140.689178,337.873962 C142.873062,331.87085 139.779266,325.234467 133.776505,323.049652 z" style="fill: rgb(5, 130, 243);" class="st0"></path><path d="M154.15506,186.903946 C158.154388,188.359573 162.583466,186.301285 164.038757,182.302902 C165.4944,178.303558 163.427994,173.870453 159.428665,172.41481 C155.429337,170.959183 151.006226,173.030289 149.550568,177.029633 C148.095276,181.028015 150.155731,185.448303 154.15506,186.903946 z" style="fill: rgb(5, 130, 243);" class="st0"></path><path d="M345.386902,179.939041 C346.842194,175.940643 344.784241,171.510605 340.776459,170.051895 C336.7771,168.596252 332.354004,170.667374 330.898712,174.665771 C329.443085,178.6651 331.504456,183.085724 335.502838,184.541031 C339.51062,185.999741 343.93158,183.937424 345.386902,179.939041 z" style="fill: rgb(5, 130, 243);" class="st0"></path></g></svg><text stroke="none" style="outline-style:none;" id="text1" stroke-width="1px" x="561.013611px" text-rendering="geometricPrecision" font-family="BradleyHandITCTT-Bold" fill="#ffffff" font-size="48px" y="1050.029663px" transform="" text-anchor="middle">Sunagimon</text></svg>